<?xml version="1.0" encoding="utf-8"?>
<!-- Generator: Adobe Illustrator 23.0.2, SVG Export Plug-In . SVG Version: 6.00 Build 0)  -->
<svg version="1.1" id="Layer_1" xmlns="http://www.w3.org/2000/svg" xmlns:xlink="http://www.w3.org/1999/xlink" x="0px" y="0px"
	 viewBox="0 0 109 32" style="enable-background:new 0 0 109 32;" xml:space="preserve">
<style type="text/css">
	.st0{fill:#00A1E0;}
	.st1{fill:#FFFFFF;}
	.st2{fill:#04799E;}
	.st3{fill:url(#SVGID_1_);}
	.st4{fill:url(#SVGID_2_);}
	.st5{fill:url(#SVGID_3_);}
</style>
<path class="st0" d="M18.54,4.77c1.32-1.38,3.17-2.24,5.21-2.24c2.71,0,5.07,1.51,6.33,3.75c1.09-0.49,2.31-0.76,3.58-0.76
	c4.89,0,8.85,4,8.85,8.93s-3.96,8.93-8.85,8.93c-0.6,0-1.18-0.06-1.74-0.17c-1.11,1.98-3.22,3.31-5.65,3.31
	c-1.02,0-1.98-0.23-2.83-0.65c-1.12,2.64-3.74,4.5-6.8,4.5c-3.18,0-5.89-2.01-6.93-4.83c-0.45,0.1-0.93,0.15-1.41,0.15
	c-3.78,0-6.85-3.1-6.85-6.92c0-2.56,1.38-4.8,3.43-6C4.46,11.8,4.22,10.73,4.22,9.6c0-4.4,3.57-7.96,7.97-7.96
	C14.78,1.63,17.08,2.86,18.54,4.77"/>
<path class="st1" d="M16.11,22.94L26.25,9.9l5.67,8.37l10.48-5.14c-0.05-0.34-0.12-0.68-0.21-1.01l-9.87,4.81L26.45,8.2L16.44,21.1
	L11.26,8.97l-6.89,2.08c0.06,0.34,0.14,0.67,0.25,1l6.1-1.78L16.11,22.94z"/>
<circle class="st1" cx="26.22" cy="9.44" r="2"/>
<circle class="st1" cx="32.02" cy="17.94" r="2"/>
<circle class="st1" cx="16.22" cy="21.94" r="2"/>
<circle class="st1" cx="10.92" cy="10.24" r="2"/>
<g>
	<path class="st2" d="M31.72,27.58l0.22-0.26c0.21,0.22,0.5,0.36,0.81,0.36c0.38,0,0.61-0.19,0.61-0.48c0-0.3-0.21-0.39-0.49-0.52
		l-0.42-0.19c-0.27-0.12-0.59-0.32-0.59-0.75c0-0.45,0.39-0.78,0.92-0.78c0.35,0,0.66,0.15,0.86,0.36l-0.2,0.24
		c-0.18-0.17-0.39-0.27-0.66-0.27c-0.33,0-0.55,0.17-0.55,0.43c0,0.28,0.26,0.39,0.48,0.48l0.42,0.18c0.34,0.15,0.6,0.35,0.6,0.78
		c0,0.46-0.38,0.83-1,0.83C32.33,28.01,31.97,27.84,31.72,27.58z"/>
	<path class="st2" d="M34.14,27.39c0-0.47,0.41-0.71,1.33-0.81c0-0.28-0.09-0.55-0.45-0.55c-0.25,0-0.48,0.12-0.65,0.23l-0.14-0.25
		c0.2-0.13,0.5-0.28,0.85-0.28c0.53,0,0.75,0.35,0.75,0.89v1.33h-0.3L35.5,27.7h-0.01c-0.21,0.17-0.45,0.31-0.72,0.31
		C34.41,28.01,34.14,27.78,34.14,27.39z M35.47,27.43v-0.6c-0.73,0.09-0.97,0.27-0.97,0.54c0,0.25,0.17,0.35,0.38,0.35
		C35.09,27.71,35.26,27.61,35.47,27.43z"/>
	<path class="st2" d="M36.52,27.52v-2.74h0.37v2.77c0,0.11,0.05,0.16,0.1,0.16c0.02,0,0.04,0,0.08-0.01l0.05,0.28
		c-0.05,0.02-0.11,0.03-0.21,0.03C36.63,28.01,36.52,27.83,36.52,27.52z"/>
	<path class="st2" d="M37.49,26.88c0-0.71,0.48-1.14,0.97-1.14c0.55,0,0.87,0.4,0.87,1.02c0,0.08-0.01,0.15-0.02,0.21h-1.46
		c0.03,0.46,0.31,0.76,0.72,0.76c0.21,0,0.38-0.07,0.54-0.17l0.13,0.24c-0.19,0.12-0.42,0.22-0.72,0.22
		C37.95,28.01,37.49,27.59,37.49,26.88z M39.01,26.7c0-0.43-0.2-0.67-0.53-0.67c-0.3,0-0.58,0.24-0.62,0.67H39.01z"/>
	<path class="st2" d="M39.62,27.71l0.18-0.24c0.19,0.15,0.38,0.26,0.64,0.26c0.28,0,0.43-0.15,0.43-0.34c0-0.22-0.26-0.32-0.5-0.41
		c-0.3-0.11-0.65-0.26-0.65-0.63c0-0.35,0.28-0.62,0.75-0.62c0.27,0,0.51,0.11,0.67,0.24l-0.18,0.23c-0.15-0.11-0.3-0.19-0.49-0.19
		c-0.27,0-0.4,0.15-0.4,0.31c0,0.21,0.24,0.28,0.48,0.38c0.31,0.12,0.66,0.24,0.66,0.66c0,0.35-0.28,0.64-0.79,0.64
		C40.12,28.01,39.82,27.88,39.62,27.71z"/>
	<path class="st2" d="M41.49,25.81l0.31-0.02h0.81v0.3h-1.12C41.49,26.09,41.49,25.81,41.49,25.81z M41.78,25.45
		c0-0.44,0.2-0.72,0.63-0.72c0.13,0,0.26,0.03,0.36,0.07l-0.08,0.28c-0.08-0.04-0.17-0.06-0.25-0.06c-0.2,0-0.31,0.14-0.31,0.42
		v2.51h-0.37v-2.5H41.78z"/>
	<path class="st2" d="M42.82,26.88c0-0.72,0.47-1.14,1-1.14s1,0.42,1,1.14s-0.47,1.13-1,1.13C43.29,28.01,42.82,27.59,42.82,26.88z
		 M44.45,26.88c0-0.5-0.25-0.83-0.63-0.83c-0.37,0-0.63,0.34-0.63,0.83c0,0.5,0.25,0.83,0.63,0.83
		C44.2,27.7,44.45,27.37,44.45,26.88z"/>
	<path class="st2" d="M45.39,25.79h0.3l0.03,0.4h0.01c0.15-0.28,0.37-0.45,0.62-0.45c0.1,0,0.16,0.01,0.23,0.04l-0.07,0.32
		c-0.07-0.02-0.12-0.04-0.21-0.04c-0.18,0-0.4,0.13-0.55,0.5v1.39h-0.37v-2.16H45.39z"/>
	<path class="st2" d="M46.73,26.88c0-0.72,0.49-1.14,1.04-1.14c0.28,0,0.48,0.12,0.63,0.25l-0.19,0.24
		c-0.13-0.11-0.26-0.19-0.43-0.19c-0.39,0-0.68,0.34-0.68,0.83c0,0.5,0.27,0.83,0.67,0.83c0.2,0,0.37-0.1,0.51-0.22l0.16,0.25
		c-0.19,0.17-0.44,0.28-0.7,0.28C47.17,28.01,46.73,27.59,46.73,26.88z"/>
	<path class="st2" d="M48.67,26.88c0-0.71,0.48-1.14,0.97-1.14c0.55,0,0.87,0.4,0.87,1.02c0,0.08-0.01,0.15-0.02,0.21h-1.46
		c0.03,0.46,0.31,0.76,0.72,0.76c0.21,0,0.38-0.07,0.54-0.17l0.13,0.24c-0.19,0.12-0.42,0.22-0.72,0.22
		C49.13,28.01,48.67,27.59,48.67,26.88z M50.18,26.7c0-0.43-0.2-0.67-0.53-0.67c-0.3,0-0.58,0.24-0.62,0.67H50.18z"/>
	<path class="st2" d="M51.96,25.03h0.38l1.06,1.84l0.32,0.61h0.02c-0.02-0.3-0.05-0.63-0.05-0.93v-1.51h0.35v2.93h-0.38l-1.06-1.84
		l-0.32-0.6h-0.02c0.02,0.3,0.05,0.61,0.05,0.91v1.53h-0.35V25.03z"/>
	<path class="st2" d="M54.64,26.88c0-0.71,0.48-1.14,0.97-1.14c0.55,0,0.87,0.4,0.87,1.02c0,0.08-0.01,0.15-0.02,0.21H55
		c0.03,0.46,0.31,0.76,0.72,0.76c0.21,0,0.38-0.07,0.54-0.17l0.13,0.24c-0.19,0.12-0.42,0.22-0.72,0.22
		C55.1,28.01,54.64,27.59,54.64,26.88z M56.16,26.7c0-0.43-0.2-0.67-0.53-0.67c-0.3,0-0.58,0.24-0.62,0.67H56.16z"/>
	<path class="st2" d="M57.03,27.29v-1.2h-0.32v-0.28l0.34-0.02l0.04-0.61h0.31v0.61h0.59v0.3H57.4v1.21c0,0.26,0.09,0.42,0.34,0.42
		c0.08,0,0.18-0.03,0.25-0.06l0.07,0.28c-0.12,0.04-0.27,0.08-0.4,0.08C57.19,28.01,57.03,27.72,57.03,27.29z"/>
	<path class="st2" d="M58.21,25.79h0.37l0.32,1.25c0.05,0.21,0.09,0.4,0.13,0.6h0.02c0.05-0.2,0.09-0.4,0.15-0.6l0.33-1.25h0.36
		l0.34,1.25c0.05,0.21,0.1,0.4,0.15,0.6h0.02c0.05-0.2,0.09-0.4,0.13-0.6l0.32-1.25h0.35l-0.58,2.17h-0.45l-0.31-1.16
		c-0.05-0.21-0.09-0.4-0.15-0.62H59.7c-0.05,0.22-0.09,0.43-0.15,0.63l-0.3,1.16h-0.43L58.21,25.79z"/>
	<path class="st2" d="M61.49,26.88c0-0.72,0.47-1.14,1-1.14s1,0.42,1,1.14s-0.47,1.13-1,1.13C61.96,28.01,61.49,27.59,61.49,26.88z
		 M63.12,26.88c0-0.5-0.25-0.83-0.63-0.83c-0.37,0-0.63,0.34-0.63,0.83c0,0.5,0.25,0.83,0.63,0.83
		C62.87,27.7,63.12,27.37,63.12,26.88z"/>
	<path class="st2" d="M64.06,25.79h0.3l0.03,0.4h0.01c0.15-0.28,0.37-0.45,0.62-0.45c0.1,0,0.16,0.01,0.23,0.04l-0.07,0.32
		c-0.07-0.02-0.12-0.04-0.21-0.04c-0.18,0-0.4,0.13-0.55,0.5v1.39h-0.37L64.06,25.79L64.06,25.79z"/>
	<path class="st2" d="M65.61,24.78h0.36v2.15h0.01l0.93-1.14h0.41l-0.73,0.87l0.82,1.3h-0.4l-0.63-1.04l-0.41,0.47v0.57h-0.36V24.78
		z"/>
	<path class="st2" d="M69.34,25.03h0.42l0.99,2.93h-0.39l-0.51-1.63c-0.11-0.33-0.2-0.65-0.29-0.99h-0.02
		c-0.09,0.34-0.18,0.66-0.29,0.99l-0.52,1.63h-0.38L69.34,25.03z M68.87,26.77h1.35v0.3h-1.35V26.77z"/>
	<path class="st2" d="M71.07,27.16v-1.37h0.37v1.33c0,0.4,0.12,0.58,0.41,0.58c0.22,0,0.37-0.11,0.58-0.37v-1.54h0.37v2.17h-0.3
		l-0.03-0.34h-0.01c-0.2,0.24-0.42,0.39-0.72,0.39C71.27,28.01,71.07,27.72,71.07,27.16z"/>
	<path class="st2" d="M73.58,27.29v-1.2h-0.32v-0.28l0.34-0.02l0.04-0.61h0.31v0.61h0.59v0.3h-0.59v1.21c0,0.26,0.09,0.42,0.34,0.42
		c0.08,0,0.18-0.03,0.25-0.06l0.07,0.28c-0.12,0.04-0.27,0.08-0.4,0.08C73.74,28.01,73.58,27.72,73.58,27.29z"/>
	<path class="st2" d="M74.8,26.88c0-0.72,0.47-1.14,1-1.14s1,0.42,1,1.14s-0.47,1.13-1,1.13C75.27,28.01,74.8,27.59,74.8,26.88z
		 M76.43,26.88c0-0.5-0.25-0.83-0.63-0.83c-0.37,0-0.63,0.34-0.63,0.83c0,0.5,0.25,0.83,0.63,0.83
		C76.18,27.7,76.43,27.37,76.43,26.88z"/>
	<path class="st2" d="M77.37,25.79h0.3l0.03,0.31h0.01c0.19-0.2,0.42-0.37,0.67-0.37c0.33,0,0.51,0.16,0.6,0.41
		c0.23-0.24,0.45-0.41,0.71-0.41c0.45,0,0.66,0.29,0.66,0.85v1.37H80v-1.33c0-0.4-0.13-0.58-0.4-0.58c-0.17,0-0.34,0.11-0.54,0.33
		v1.57h-0.37v-1.33c0-0.4-0.13-0.58-0.4-0.58c-0.16,0-0.34,0.11-0.54,0.33v1.57h-0.37L77.37,25.79L77.37,25.79z"/>
	<path class="st2" d="M80.93,27.39c0-0.47,0.41-0.71,1.33-0.81c0-0.28-0.09-0.55-0.45-0.55c-0.25,0-0.48,0.12-0.65,0.23l-0.14-0.25
		c0.2-0.13,0.5-0.28,0.85-0.28c0.53,0,0.75,0.35,0.75,0.89v1.33h-0.3l-0.03-0.26h-0.01C82.07,27.86,81.83,28,81.56,28
		C81.2,28.01,80.93,27.78,80.93,27.39z M82.26,27.43v-0.6c-0.73,0.09-0.97,0.27-0.97,0.54c0,0.25,0.17,0.35,0.38,0.35
		C81.88,27.71,82.05,27.61,82.26,27.43z"/>
	<path class="st2" d="M83.31,27.29v-1.2h-0.32v-0.28l0.34-0.02l0.04-0.61h0.31v0.61h0.59v0.3h-0.59v1.21c0,0.26,0.09,0.42,0.33,0.42
		c0.08,0,0.18-0.03,0.25-0.06l0.07,0.28c-0.12,0.04-0.27,0.08-0.4,0.08C83.46,28.01,83.31,27.72,83.31,27.29z"/>
	<path class="st2" d="M84.68,25.11c0-0.14,0.11-0.24,0.25-0.24s0.25,0.09,0.25,0.24c0,0.14-0.11,0.24-0.25,0.24
		C84.79,25.34,84.68,25.24,84.68,25.11z M84.75,25.79h0.37v2.17h-0.37V25.79z"/>
	<path class="st2" d="M85.68,26.88c0-0.72,0.47-1.14,1-1.14s1,0.42,1,1.14s-0.47,1.13-1,1.13C86.16,28.01,85.68,27.59,85.68,26.88z
		 M87.31,26.88c0-0.5-0.25-0.83-0.63-0.83c-0.37,0-0.63,0.34-0.63,0.83c0,0.5,0.25,0.83,0.63,0.83
		C87.06,27.7,87.31,27.37,87.31,26.88z"/>
	<path class="st2" d="M88.26,25.79h0.3l0.03,0.31h0.01c0.21-0.2,0.43-0.37,0.73-0.37c0.46,0,0.66,0.29,0.66,0.85v1.37h-0.37v-1.33
		c0-0.4-0.12-0.58-0.41-0.58c-0.22,0-0.37,0.11-0.59,0.33v1.57h-0.37L88.26,25.79L88.26,25.79z"/>
	<path class="st2" d="M91.62,25.03h0.84c0.66,0,1.1,0.22,1.1,0.86c0,0.62-0.44,0.9-1.08,0.9H92v1.16h-0.37L91.62,25.03L91.62,25.03z
		 M92.42,26.49c0.51,0,0.76-0.19,0.76-0.6c0-0.42-0.26-0.56-0.77-0.56h-0.42v1.16H92.42z"/>
	<path class="st2" d="M94.1,27.52v-2.74h0.37v2.77c0,0.11,0.05,0.16,0.1,0.16c0.02,0,0.04,0,0.08-0.01l0.05,0.28
		c-0.05,0.02-0.11,0.03-0.21,0.03C94.21,28.01,94.1,27.83,94.1,27.52z"/>
	<path class="st2" d="M95.1,27.39c0-0.47,0.41-0.71,1.33-0.81c0-0.28-0.09-0.55-0.45-0.55c-0.25,0-0.48,0.12-0.65,0.23l-0.14-0.25
		c0.2-0.13,0.5-0.28,0.85-0.28c0.53,0,0.75,0.35,0.75,0.89v1.33h-0.3l-0.03-0.26h-0.01C96.24,27.86,96,28,95.73,28
		C95.37,28.01,95.1,27.78,95.1,27.39z M96.43,27.43v-0.6c-0.73,0.09-0.97,0.27-0.97,0.54c0,0.25,0.17,0.35,0.38,0.35
		C96.05,27.71,96.22,27.61,96.43,27.43z"/>
	<path class="st2" d="M97.48,27.29v-1.2h-0.32v-0.28l0.34-0.02l0.04-0.61h0.31v0.61h0.59v0.3h-0.59v1.21c0,0.26,0.09,0.42,0.33,0.42
		c0.08,0,0.18-0.03,0.25-0.06l0.07,0.28c-0.12,0.04-0.27,0.08-0.4,0.08C97.64,28.01,97.48,27.72,97.48,27.29z"/>
	<path class="st2" d="M98.69,25.81L99,25.79h0.81v0.3h-1.12C98.69,26.09,98.69,25.81,98.69,25.81z M98.98,25.45
		c0-0.44,0.2-0.72,0.63-0.72c0.13,0,0.26,0.03,0.36,0.07l-0.08,0.28c-0.08-0.04-0.17-0.06-0.25-0.06c-0.2,0-0.31,0.14-0.31,0.42
		v2.51h-0.37v-2.5H98.98z"/>
	<path class="st2" d="M100.01,26.88c0-0.72,0.47-1.14,1-1.14s1,0.42,1,1.14s-0.47,1.13-1,1.13
		C100.49,28.01,100.01,27.59,100.01,26.88z M101.65,26.88c0-0.5-0.25-0.83-0.63-0.83c-0.37,0-0.63,0.34-0.63,0.83
		c0,0.5,0.25,0.83,0.63,0.83C101.39,27.7,101.65,27.37,101.65,26.88z"/>
	<path class="st2" d="M102.59,25.79h0.3l0.03,0.4h0.01c0.15-0.28,0.37-0.45,0.62-0.45c0.1,0,0.16,0.01,0.23,0.04l-0.07,0.32
		c-0.07-0.02-0.12-0.04-0.21-0.04c-0.18,0-0.4,0.13-0.55,0.5v1.39h-0.37L102.59,25.79L102.59,25.79z"/>
	<path class="st2" d="M104.13,25.79h0.3l0.03,0.31h0.01c0.19-0.2,0.42-0.37,0.67-0.37c0.33,0,0.51,0.16,0.6,0.41
		c0.23-0.24,0.45-0.41,0.71-0.41c0.45,0,0.66,0.29,0.66,0.85v1.37h-0.37v-1.33c0-0.4-0.13-0.58-0.4-0.58
		c-0.17,0-0.34,0.11-0.54,0.33v1.57h-0.37v-1.33c0-0.4-0.13-0.58-0.4-0.58c-0.16,0-0.34,0.11-0.54,0.33v1.57h-0.37v-2.14H104.13z"/>
</g>
<path class="st0" d="M44.86,19.7c-0.11,0.29,0.04,0.35,0.07,0.4c0.33,0.24,0.66,0.41,1,0.6c1.78,0.95,3.46,1.22,5.22,1.22
	c3.58,0,5.81-1.91,5.81-4.98v-0.06c0-2.84-2.51-3.87-4.87-4.61l-0.31-0.1c-1.78-0.58-3.31-1.08-3.31-2.25V9.86
	c0-1,0.9-1.74,2.29-1.74c1.54,0,3.38,0.51,4.56,1.16c0,0,0.35,0.22,0.47-0.11c0.07-0.18,0.67-1.79,0.73-1.96
	c0.07-0.19-0.05-0.33-0.17-0.4C55,5.99,53.14,5.43,51.21,5.43h-0.36c-3.28,0-5.57,1.98-5.57,4.82v0.06c0,2.99,2.53,3.97,4.89,4.64
	l0.38,0.12c1.72,0.53,3.21,0.99,3.21,2.2v0.06c0,1.11-0.97,1.94-2.52,1.94c-0.6,0-2.53-0.01-4.62-1.33
	c-0.25-0.15-0.4-0.25-0.59-0.37c-0.1-0.06-0.36-0.18-0.47,0.16L44.86,19.7L44.86,19.7z"/>
<linearGradient id="SVGID_1_" gradientUnits="userSpaceOnUse" x1="61.15" y1="13.7" x2="75.7" y2="13.7">
	<stop  offset="0" style="stop-color:#00A1E0"/>
	<stop  offset="0.4071" style="stop-color:#25B8E7"/>
	<stop  offset="0.7811" style="stop-color:#41CAED"/>
	<stop  offset="0.9987" style="stop-color:#4BD0EF"/>
</linearGradient>
<path class="st3" d="M61.16,5.38h3.5l8.23,12.41h0.05L72.86,5.38h2.84v16.64h-3.5L63.98,9.59h-0.05l0.09,12.43h-2.87V5.38H61.16z"/>
<linearGradient id="SVGID_2_" gradientUnits="userSpaceOnUse" x1="77.51" y1="13.71" x2="93.44" y2="13.71">
	<stop  offset="0" style="stop-color:#4BD0EF"/>
	<stop  offset="1" style="stop-color:#7ADCED"/>
</linearGradient>
<path class="st4" d="M88.84,18.43h-6.77l-1.34,3.6h-3.22L83.9,5.39h3.17l6.37,16.64H90.1L88.84,18.43z M82.9,16.08h5.15l-2.56-7.54
	L82.9,16.08z"/>
<g>
	<linearGradient id="SVGID_3_" gradientUnits="userSpaceOnUse" x1="95.29" y1="13.7" x2="107.55" y2="13.7">
		<stop  offset="1.012731e-03" style="stop-color:#92E2EA"/>
		<stop  offset="0.9996" style="stop-color:#B3E3E8"/>
	</linearGradient>
	<path class="st5" d="M107.55,10.95c0,1.24-0.29,2.29-0.87,3.15c-0.58,0.86-1.34,1.5-2.29,1.92c-0.95,0.42-1.99,0.62-3.11,0.62
		h-2.91v5.38h-3.08V5.38h5.99c1.88,0,3.4,0.46,4.55,1.38S107.55,9.07,107.55,10.95z M98.34,7.85v6.3H101c0.97,0,1.79-0.26,2.44-0.79
		c0.66-0.52,0.99-1.32,0.99-2.39c0-1.11-0.32-1.91-0.96-2.4s-1.46-0.73-2.44-0.73h-2.69V7.85z"/>
</g>
</svg>
