<?xml version="1.0" encoding="utf-8"?>
<!-- Generator: Adobe Illustrator 23.0.2, SVG Export Plug-In . SVG Version: 6.00 Build 0)  -->
<svg version="1.1" id="Layer_1" xmlns="http://www.w3.org/2000/svg" xmlns:xlink="http://www.w3.org/1999/xlink" x="0px" y="0px"
	 viewBox="0 0 47 35" style="enable-background:new 0 0 47 35;" xml:space="preserve">
<style type="text/css">
	.st0{fill:#00A1E0;}
	.st1{fill:#FFFFFF;}
</style>
<g>
	<path class="st0" d="M20.06,6.27c1.32-1.38,3.17-2.24,5.21-2.24c2.71,0,5.07,1.51,6.33,3.75c1.09-0.49,2.31-0.76,3.58-0.76
		c4.89,0,8.85,4,8.85,8.93c0,4.93-3.96,8.93-8.85,8.93c-0.6,0-1.18-0.06-1.74-0.17c-1.11,1.98-3.22,3.31-5.65,3.31
		c-1.02,0-1.98-0.23-2.83-0.65c-1.12,2.64-3.74,4.5-6.8,4.5c-3.18,0-5.89-2.01-6.93-4.83c-0.45,0.1-0.93,0.15-1.41,0.15
		c-3.78,0-6.85-3.1-6.85-6.92c0-2.56,1.38-4.8,3.43-6c-0.42-0.97-0.66-2.04-0.66-3.17c0-4.4,3.57-7.96,7.97-7.96
		C16.3,3.13,18.6,4.36,20.06,6.27"/>
	<path class="st1" d="M17.63,24.44L27.77,11.4l5.67,8.37l10.48-5.14c-0.05-0.34-0.12-0.68-0.21-1.01l-9.87,4.81L27.97,9.7
		L17.96,22.6l-5.18-12.13l-6.89,2.08c0.06,0.34,0.14,0.67,0.25,1l6.1-1.78L17.63,24.44z"/>
	<circle class="st1" cx="27.74" cy="10.94" r="2"/>
	<circle class="st1" cx="33.54" cy="19.44" r="2"/>
	<circle class="st1" cx="17.74" cy="23.44" r="2"/>
	<circle class="st1" cx="12.44" cy="11.74" r="2"/>
</g>
</svg>
